<svg width="134" height="40" viewBox="0 0 134 40" fill="none" xmlns="http://www.w3.org/2000/svg">
<path d="M48.52 28.24C47.76 28.24 47.1 28.1133 46.54 27.86C45.98 27.6067 45.5467 27.2467 45.24 26.78C44.9333 26.3 44.78 25.7467 44.78 25.12C44.78 24.52 44.9133 23.9867 45.18 23.52C45.4467 23.04 45.86 22.64 46.42 22.32C46.98 22 47.6867 21.7733 48.54 21.64L52.1 21.06V23.06L49.04 23.58C48.52 23.6733 48.1333 23.84 47.88 24.08C47.6267 24.32 47.5 24.6333 47.5 25.02C47.5 25.3933 47.64 25.6933 47.92 25.92C48.2133 26.1333 48.5733 26.24 49 26.24C49.5467 26.24 50.0267 26.1267 50.44 25.9C50.8667 25.66 51.1933 25.3333 51.42 24.92C51.66 24.5067 51.78 24.0533 51.78 23.56V20.76C51.78 20.2933 51.5933 19.9067 51.22 19.6C50.86 19.28 50.38 19.12 49.78 19.12C49.22 19.12 48.72 19.2733 48.28 19.58C47.8533 19.8733 47.54 20.2667 47.34 20.76L45.2 19.72C45.4133 19.1467 45.7467 18.6533 46.2 18.24C46.6667 17.8133 47.2133 17.48 47.84 17.24C48.4667 17 49.1467 16.88 49.88 16.88C50.7733 16.88 51.56 17.0467 52.24 17.38C52.92 17.7 53.4467 18.1533 53.82 18.74C54.2067 19.3133 54.4 19.9867 54.4 20.76V28H51.92V26.14L52.48 26.1C52.2 26.5667 51.8667 26.96 51.48 27.28C51.0933 27.5867 50.6533 27.8267 50.16 28C49.6667 28.16 49.12 28.24 48.52 28.24ZM56.8216 28V17.12H59.2816V19.26L59.0816 18.88C59.3349 18.2267 59.7482 17.7333 60.3216 17.4C60.9082 17.0533 61.5882 16.88 62.3616 16.88C63.1616 16.88 63.8682 17.0533 64.4816 17.4C65.1082 17.7467 65.5949 18.2333 65.9416 18.86C66.2882 19.4733 66.4616 20.1867 66.4616 21V28H63.8416V21.62C63.8416 21.14 63.7482 20.7267 63.5616 20.38C63.3749 20.0333 63.1149 19.7667 62.7816 19.58C62.4616 19.38 62.0816 19.28 61.6416 19.28C61.2149 19.28 60.8349 19.38 60.5016 19.58C60.1682 19.7667 59.9082 20.0333 59.7216 20.38C59.5349 20.7267 59.4416 21.14 59.4416 21.62V28H56.8216ZM68.677 28V17.12H71.137V19.26L70.937 18.88C71.1904 18.2267 71.6037 17.7333 72.177 17.4C72.7637 17.0533 73.4437 16.88 74.217 16.88C75.017 16.88 75.7237 17.0533 76.337 17.4C76.9637 17.7467 77.4504 18.2333 77.797 18.86C78.1437 19.4733 78.317 20.1867 78.317 21V28H75.697V21.62C75.697 21.14 75.6037 20.7267 75.417 20.38C75.2304 20.0333 74.9704 19.7667 74.637 19.58C74.317 19.38 73.937 19.28 73.497 19.28C73.0704 19.28 72.6904 19.38 72.357 19.58C72.0237 19.7667 71.7637 20.0333 71.577 20.38C71.3904 20.7267 71.297 21.14 71.297 21.62V28H68.677ZM84.4125 28.24C83.5725 28.24 82.8392 28.0533 82.2125 27.68C81.5992 27.3067 81.1258 26.7867 80.7925 26.12C80.4725 25.4533 80.3125 24.6733 80.3125 23.78V17.12H82.9325V23.56C82.9325 24.0133 83.0192 24.4133 83.1925 24.76C83.3792 25.0933 83.6392 25.36 83.9725 25.56C84.3192 25.7467 84.7058 25.84 85.1325 25.84C85.5592 25.84 85.9392 25.7467 86.2725 25.56C86.6058 25.36 86.8658 25.0867 87.0525 24.74C87.2392 24.3933 87.3325 23.98 87.3325 23.5V17.12H89.9525V28H87.4725V25.86L87.6925 26.24C87.4392 26.9067 87.0192 27.4067 86.4325 27.74C85.8592 28.0733 85.1858 28.24 84.4125 28.24ZM97.548 28.24C96.428 28.24 95.448 27.9867 94.608 27.48C93.768 26.9733 93.1146 26.2867 92.648 25.42C92.1813 24.5533 91.948 23.5933 91.948 22.54C91.948 21.4467 92.1813 20.48 92.648 19.64C93.128 18.7867 93.7746 18.1133 94.588 17.62C95.4146 17.1267 96.3346 16.88 97.348 16.88C98.2013 16.88 98.948 17.02 99.588 17.3C100.241 17.58 100.795 17.9667 101.248 18.46C101.701 18.9533 102.048 19.52 102.288 20.16C102.528 20.7867 102.648 21.4667 102.648 22.2C102.648 22.3867 102.635 22.58 102.608 22.78C102.595 22.98 102.561 23.1533 102.508 23.3H94.108V21.3H101.028L99.788 22.24C99.908 21.6267 99.8746 21.08 99.688 20.6C99.5146 20.12 99.2213 19.74 98.808 19.46C98.408 19.18 97.9213 19.04 97.348 19.04C96.8013 19.04 96.3146 19.18 95.888 19.46C95.4613 19.7267 95.1346 20.1267 94.908 20.66C94.6946 21.18 94.6146 21.8133 94.668 22.56C94.6146 23.2267 94.7013 23.82 94.928 24.34C95.168 24.8467 95.5146 25.24 95.968 25.52C96.4346 25.8 96.968 25.94 97.568 25.94C98.168 25.94 98.6746 25.8133 99.088 25.56C99.5146 25.3067 99.848 24.9667 100.088 24.54L102.208 25.58C101.995 26.1 101.661 26.56 101.208 26.96C100.755 27.36 100.215 27.6733 99.588 27.9C98.9746 28.1267 98.2946 28.24 97.548 28.24ZM104.634 28V17.12H107.094V19.26L106.894 18.88C107.147 18.2267 107.561 17.7333 108.134 17.4C108.721 17.0533 109.401 16.88 110.174 16.88C110.974 16.88 111.681 17.0533 112.294 17.4C112.921 17.7467 113.407 18.2333 113.754 18.86C114.101 19.4733 114.274 20.1867 114.274 21V28H111.654V21.62C111.654 21.14 111.561 20.7267 111.374 20.38C111.187 20.0333 110.927 19.7667 110.594 19.58C110.274 19.38 109.894 19.28 109.454 19.28C109.027 19.28 108.647 19.38 108.314 19.58C107.981 19.7667 107.721 20.0333 107.534 20.38C107.347 20.7267 107.254 21.14 107.254 21.62V28H104.634ZM116.49 28V17.12H118.95V19.54L118.75 19.18C119.003 18.3667 119.396 17.8 119.93 17.48C120.476 17.16 121.13 17 121.89 17H122.53V19.32H121.59C120.843 19.32 120.243 19.5533 119.79 20.02C119.336 20.4733 119.11 21.1133 119.11 21.94V28H116.49Z" fill="white"/>
<g clip-path="url(#clip0_3224_1461)">
<path d="M33.333 15.6134L26.2224 10.0827C25.5984 9.59725 24.8303 9.33368 24.0397 9.33368C23.2491 9.33368 22.4811 9.59725 21.857 10.0827L14.745 15.6134C14.3176 15.9458 13.9718 16.3714 13.7341 16.8578C13.4963 17.3443 13.3728 17.8786 13.373 18.42V28.02C13.373 28.7273 13.654 29.4056 14.1541 29.9057C14.6542 30.4058 15.3325 30.6867 16.0397 30.6867H32.0397C32.747 30.6867 33.4252 30.4058 33.9253 29.9057C34.4254 29.4056 34.7064 28.7273 34.7064 28.02V18.42C34.7064 17.3227 34.1997 16.2867 33.333 15.6134Z" fill="white" stroke="white" stroke-width="3" stroke-linecap="round" stroke-linejoin="round"/>
<path d="M29.3337 24C26.387 25.7773 21.611 25.7773 18.667 24" stroke="#40D881" stroke-width="3" stroke-linecap="round" stroke-linejoin="round"/>
</g>
<defs>
<clipPath id="clip0_3224_1461">
<rect width="32" height="32" fill="white" transform="translate(8 4)"/>
</clipPath>
</defs>
</svg>
